<svg width="40" height="37" viewBox="0 0 40 37" fill="none" xmlns="http://www.w3.org/2000/svg">
<g clip-path="url(#clip0_2234_3276)">
<path d="M5.44838 36.8783C3.21982 36.8783 1.44085 36.0106 0.565949 34.499C-0.306522 32.9874 -0.167996 31.0116 0.945073 29.0819L15.4976 3.87989C16.6131 1.95025 18.2535 0.842041 19.9985 0.842041C21.7434 0.842041 23.3863 1.95025 24.4994 3.87989L39.0494 29.0819C40.165 31.0116 40.3035 32.9874 39.4286 34.499C38.5561 36.0106 36.7771 36.8783 34.5486 36.8783H5.44838Z" fill="#D33A38"/>
<path d="M19.9991 1.08507C21.6565 1.08507 23.2192 2.1471 24.2909 4.00141L38.841 29.2034C39.9104 31.0577 40.0489 32.9436 39.2202 34.3775C38.3914 35.8114 36.6902 36.6352 34.5492 36.6352H5.44897C3.30789 36.6352 1.60669 35.8114 0.777965 34.3775C-0.0507605 32.9436 0.0877656 31.0577 1.15709 29.2034L15.7096 4.00141C16.7789 2.1471 18.344 1.08507 19.9991 1.08507ZM19.9991 0.842041C18.2541 0.842041 16.6112 1.95025 15.4982 3.87989L0.948085 29.0819C-0.167414 31.0116 -0.30594 32.9874 0.568961 34.499C1.44143 36.0106 3.2204 36.8783 5.4514 36.8783H34.5516C36.7802 36.8783 38.5591 36.0106 39.4316 34.499C40.3041 32.9874 40.1655 31.0116 39.0525 29.0819L24.4999 3.87989C23.3869 1.95025 21.7464 0.842041 19.9991 0.842041Z" fill="#D33A38"/>
<path d="M19.9987 3.87995C20.6306 3.87995 21.311 4.43406 21.87 5.39888L29.1463 17.9999L36.4225 30.6009C36.9791 31.5657 37.1176 32.4333 36.8017 32.9801C36.4857 33.527 35.6667 33.8405 34.5512 33.8405H19.9987H5.44859C4.33309 33.8405 3.51409 33.527 3.19815 32.9801C2.88222 32.4333 3.02074 31.5657 3.57728 30.6009L10.8535 17.9999L18.1298 5.39888C18.6863 4.43406 19.3692 3.87995 19.9987 3.87995ZM19.9987 2.42178C18.8637 2.42178 17.7312 3.17031 16.8661 4.66979L9.59222 17.2708L2.31596 29.8718C0.585599 32.8683 1.98787 35.2986 5.44859 35.2986H19.9987H34.5488C38.0095 35.2986 39.4118 32.8683 37.6814 29.8718L30.4076 17.2708L23.1313 4.66979C22.2661 3.17031 21.1336 2.42178 19.9987 2.42178Z" fill="white"/>
<path d="M19.9552 31.2279C18.9466 31.2279 18.2686 30.5134 18.2686 29.4514C18.2686 28.3724 18.9539 27.6749 20.0159 27.6749C21.0707 27.6749 21.7123 28.3456 21.7317 29.4684C21.7317 30.5304 21.0585 31.2279 20.0159 31.2279H19.9552ZM18.9417 25.5508L18.2953 12.2499C18.2686 11.7176 18.5942 11.0566 19.0754 10.9035C19.3768 10.8087 19.6757 10.7601 19.9746 10.7601C20.2808 10.7601 20.5943 10.8111 20.9151 10.9132C21.4182 11.0736 21.7657 11.7346 21.739 12.2693L21.095 25.5508C21.0682 26.083 20.6162 26.5156 20.0815 26.5156H19.9527C19.4205 26.5156 18.966 26.083 18.9417 25.5508Z" fill="white"/>
</g>
<defs>
<clipPath id="clip0_2234_3276">
<rect width="40" height="36.0362" fill="white" transform="translate(0 0.842041)"/>
</clipPath>
</defs>
</svg>
