<svg width="92" height="47" viewBox="0 0 92 47" fill="none" xmlns="http://www.w3.org/2000/svg">
<path d="M92 46.2222C92 34.1108 87.1888 22.4955 78.6247 13.9314C70.0607 5.36738 58.4454 0.556153 46.334 0.556152C34.2226 0.556151 22.6073 5.36738 14.0432 13.9314C5.4792 22.4955 0.667971 34.1108 0.667969 46.2222H12.0845C12.0845 37.1386 15.6929 28.4271 22.1159 22.0041C28.539 15.5811 37.2505 11.9727 46.334 11.9727C55.4175 11.9727 64.129 15.5811 70.552 22.0041C76.9751 28.4271 80.5835 37.1386 80.5835 46.2222H92Z" fill="#D33A38"/>
<path d="M24.2171 6.26934C17.0616 10.2305 11.1012 16.0406 6.95873 23.0927C2.81626 30.1447 0.643738 38.1799 0.668173 46.3586L12.0846 46.3245C12.0663 40.1905 13.6957 34.1641 16.8025 28.875C19.9094 23.586 24.3797 19.2284 29.7463 16.2575L24.2171 6.26934Z" fill="#1A7038"/>
<path d="M69.167 6.67424C62.2422 2.6762 54.389 0.566508 46.3929 0.55619C38.3968 0.545873 30.5382 2.63529 23.6031 6.61544L29.2858 16.5171C34.4872 13.532 40.3811 11.9649 46.3782 11.9727C52.3752 11.9804 58.2651 13.5627 63.4587 16.5612L69.167 6.67424Z" fill="#E4A71C"/>
<path d="M79.0717 26.8313L45.6738 45.912L43.6081 41.725L79.0717 26.8313Z" fill="#272525"/>
<path d="M46.5218 45.7195C45.2653 46.3395 43.7441 45.8234 43.1242 44.5669C42.5042 43.3103 43.0203 41.7892 44.2768 41.1692C45.5334 40.5493 47.0546 41.0653 47.6745 42.3219C48.2944 43.5784 47.7784 45.0996 46.5218 45.7195Z" fill="#272525"/>
</svg>
