<svg width="72" height="22" viewBox="0 0 72 22" fill="none" xmlns="http://www.w3.org/2000/svg">
<g clip-path="url(#clip0_2239_6454)">
<path d="M62.0917 5.9563H59.1411L56.9197 8.81623L54.7693 5.9563H51.6592L55.3377 10.8203L51.6592 15.7571H54.6804L56.8483 12.751L58.3935 10.7478L62.0917 5.9563Z" fill="#333132"/>
<path d="M57.4951 13.6776L58.946 15.7575H62.0916L58.3947 10.7478L57.4951 13.6776Z" fill="#333132"/>
<path d="M39.5446 10.1986V15.7568H36.7715V10.6257C36.7715 9.07637 36.0615 8.36453 34.8337 8.36453C33.5027 8.36453 32.5421 9.1844 32.5421 10.9473V15.7581H29.769V5.95977H32.4173V7.22475C32.8267 6.80351 33.3199 6.47323 33.8648 6.25532C34.4097 6.0374 34.9942 5.93671 35.5804 5.95977C37.8357 5.95977 39.5446 7.27752 39.5446 10.2015" fill="#333132"/>
<path d="M45.6713 13.2512C45.199 13.2514 44.7372 13.1111 44.3444 12.8482C43.9516 12.5852 43.6454 12.2114 43.4645 11.774C43.2836 11.3365 43.2362 10.8551 43.3282 10.3907C43.4201 9.92618 43.6474 9.49948 43.9813 9.16451C44.3151 8.82955 44.7406 8.60136 45.2038 8.50882C45.667 8.41627 46.1471 8.46351 46.5836 8.64458C47.02 8.82564 47.393 9.1324 47.6556 9.52605C47.9181 9.9197 48.0583 10.3826 48.0585 10.8561C48.0585 11.4911 47.8071 12.1 47.3594 12.5491C46.9118 12.9983 46.3046 13.2508 45.6713 13.2512ZM47.924 5.95654V6.51052C47.1792 6.12196 46.3471 5.93238 45.508 5.96003C44.6689 5.98769 43.851 6.23165 43.1333 6.66841C42.4155 7.10518 41.8222 7.72 41.4104 8.45358C40.9986 9.18715 40.7822 10.0147 40.7822 10.8565C40.7822 11.6983 40.9986 12.5259 41.4104 13.2595C41.8222 13.9931 42.4155 14.6079 43.1333 15.0446C43.851 15.4814 44.6689 15.7254 45.508 15.753C46.3471 15.7807 47.1792 15.5911 47.924 15.2025V15.7565H50.5585V5.95822L47.924 5.95654Z" fill="#333132"/>
<path d="M66.6105 13.2513C66.1382 13.2511 65.6766 13.1106 65.2841 12.8474C64.8915 12.5843 64.5855 12.2103 64.4049 11.7728C64.2242 11.3354 64.177 10.854 64.2692 10.3897C64.3614 9.92531 64.5888 9.49875 64.9227 9.16395C65.2566 8.82915 65.6821 8.60114 66.1452 8.50873C66.6084 8.41632 67.0885 8.46367 67.5248 8.64478C67.9611 8.8259 68.3341 9.13265 68.5965 9.52626C68.859 9.91988 68.9992 10.3827 68.9993 10.8561C68.9995 11.1707 68.9378 11.4822 68.8178 11.7729C68.6978 12.0636 68.5219 12.3277 68.3 12.5501C68.0782 12.7726 67.8147 12.949 67.5248 13.0693C67.2349 13.1896 66.9242 13.2514 66.6105 13.2513ZM68.8657 5.95658V6.51056C68.1206 6.12106 67.2879 5.93071 66.4481 5.95787C65.6083 5.98503 64.7896 6.2288 64.0711 6.66563C63.3526 7.10246 62.7585 7.71761 62.3462 8.45171C61.9339 9.18581 61.7173 10.0141 61.7173 10.8566C61.7173 11.699 61.9339 12.5273 62.3462 13.2614C62.7585 13.9955 63.3526 14.6107 64.0711 15.0475C64.7896 15.4843 65.6083 15.7281 66.4481 15.7552C67.2879 15.7824 68.1206 15.5921 68.8657 15.2026V15.7578H71.5014V5.95658H68.8657Z" fill="#333132"/>
<path d="M10.9363 10.8489L0.5 21.3121L14.4043 14.3419L21.3567 0.401123L10.9363 10.8489Z" fill="#0055FF"/>
<path d="M14.4043 14.3419L21.3562 21.3121V0.401123L14.4043 14.3419Z" fill="url(#paint0_linear_2239_6454)"/>
<path d="M0.5 0.401123V21.3121L10.002 9.92765L0.5 0.401123Z" fill="url(#paint1_linear_2239_6454)"/>
</g>
<defs>
<linearGradient id="paint0_linear_2239_6454" x1="18.6311" y1="14.2651" x2="23.8977" y2="13.3098" gradientUnits="userSpaceOnUse">
<stop stop-color="#0055FF"/>
<stop offset="1" stop-color="#001ACB"/>
</linearGradient>
<linearGradient id="paint1_linear_2239_6454" x1="-4.71661" y1="5.62887" x2="7.36288" y2="8.1284" gradientUnits="userSpaceOnUse">
<stop stop-color="#FFDC1C"/>
<stop offset="1" stop-color="#FFAA00"/>
</linearGradient>
<clipPath id="clip0_2239_6454">
<rect width="71" height="20.911" fill="white" transform="translate(0.5 0.401123)"/>
</clipPath>
</defs>
</svg>
